<?xml version="1.0" encoding="UTF-8"?>
<svg width="26px" height="26px" viewBox="0 0 26 26" version="1.1" xmlns="http://www.w3.org/2000/svg" xmlns:xlink="http://www.w3.org/1999/xlink">
    <!-- Generator: Sketch 46.2 (44496) - http://www.bohemiancoding.com/sketch -->
    <title>Group 2</title>
    <desc>Created with Sketch.</desc>
    <defs></defs>
    <g id="Page-1" stroke="none" stroke-width="1" fill="none" fill-rule="evenodd">
        <g id="Adblock-v1-1" transform="translate(-870.000000, -131.000000)" fill="#FFFFFF">
            <g id="Dropdown-_expandedCopy" transform="translate(729.000000, 75.000000)">
                <g id="Main-Button" transform="translate(127.000000, 42.000000)">
                    <g id="Group-2" transform="translate(14.000000, 14.000000)">
                        <polygon id="Path" points="12 0 12 12 14 12 14 0"></polygon>
                        <path d="M5.10627374,2.67011133 C2.00208003,5.04581915 0,8.78910415 0,13 C0,20.1797017 5.82029825,26 13,26 C20.1797017,26 26,20.1797017 26,13 C26,8.78910415 23.99792,5.04581915 20.8937263,2.67011133 L19.4028496,4.05449676 C22.1864594,6.05044179 24,9.31343335 24,13 C24,19.0751322 19.0751322,24 13,24 C6.92486775,24 2,19.0751322 2,13 C2,9.31343335 3.81354059,6.05044179 6.59715036,4.05449676 L5.10627374,2.67011133 L5.10627374,2.67011133 Z" id="Combined-Shape"></path>
                    </g>
                </g>
            </g>
        </g>
    </g>
</svg>