<?xml version="1.0" encoding="UTF-8"?>
<svg width="40px" height="45px" viewBox="0 0 40 45" version="1.1" xmlns="http://www.w3.org/2000/svg" xmlns:xlink="http://www.w3.org/1999/xlink">
    <!-- Generator: Sketch 46.2 (44496) - http://www.bohemiancoding.com/sketch -->
    <title>Can't reach icon</title>
    <desc>Created with Sketch.</desc>
    <defs>
        <path d="M8.5,19 L22.5,19 L22.5,19 C22.7761424,19 23,19.2238576 23,19.5 L23,19.5 L23,19.5 C23,19.7761424 22.7761424,20 22.5,20 L8.5,20 L8.5,20 C8.22385763,20 8,19.7761424 8,19.5 L8,19.5 L8,19.5 C8,19.2238576 8.22385763,19 8.5,19 Z" id="path-1"></path>
        <path d="M8.5,22 L22.5,22 L22.5,22 C22.7761424,22 23,22.2238576 23,22.5 L23,22.5 L23,22.5 C23,22.7761424 22.7761424,23 22.5,23 L8.5,23 L8.5,23 C8.22385763,23 8,22.7761424 8,22.5 L8,22.5 L8,22.5 C8,22.2238576 8.22385763,22 8.5,22 Z" id="path-2"></path>
    </defs>
    <g id="Page-1" stroke="none" stroke-width="1" fill="none" fill-rule="evenodd">
        <g id="Adblock-v1-5" transform="translate(-864.000000, -245.000000)">
            <g id="Dropdown-_expandedCopy" transform="translate(729.000000, 75.000000)">
                <g id="Can't-reach-icon" transform="translate(135.000000, 170.000000)">
                    <g id="Rectangle-6" transform="translate(15.500000, 19.500000) scale(-1, 1) translate(-15.500000, -19.500000) ">
                        <use fill="#D8D8D8" fill-rule="evenodd" xlink:href="#path-1"></use>
                        <path stroke="#979797" stroke-width="1" d="M8.5,19.5 L22.5,19.5 L8.5,19.5 Z"></path>
                    </g>
                    <g id="Rectangle-6-Copy" transform="translate(15.500000, 22.500000) scale(-1, 1) translate(-15.500000, -22.500000) ">
                        <use fill="#D8D8D8" fill-rule="evenodd" xlink:href="#path-2"></use>
                        <path stroke="#979797" stroke-width="1" d="M8.5,22.5 L22.5,22.5 L8.5,22.5 Z"></path>
                    </g>
                    <path d="M14,12 L4.5,12 C2.290861,12 0.5,10.209139 0.5,8 L0.5,2.66453526e-15 L1.5,0.888888889 L1.5,8 C1.5,9.65685425 2.84314575,11 4.5,11 L12.875,11 L14,12 Z M14,12 L4.5,12 C2.290861,12 0.5,10.209139 0.5,8 L0.5,2.66453526e-15 L1.5,0.888888889 L1.5,8 C1.5,9.65685425 2.84314575,11 4.5,11 L12.875,11 L14,12 Z" id="Rectangle-4" fill="#979797" fill-rule="nonzero" transform="translate(7.250000, 6.000000) scale(-1, 1) translate(-7.250000, -6.000000) "></path>
                    <path d="M14,38 L14,37 L27,37 C28.3333333,37 29,36.3333333 29,35 L29,11.5 L17.5,1 L4,1 C2.66666667,1.10148112 2,1.76814779 2,3 L2,22 L1,22 L1,3 C1,1 2,0 4,0 L18,0 L30,11 L30,35 C30,36.6666667 29,37.6666667 27,38 L14,38 Z" id="Path-2" fill="#979797" transform="translate(15.500000, 19.000000) scale(-1, 1) translate(-15.500000, -19.000000) "></path>
                    <path d="M29,44 C34.5228475,44 39,39.5228475 39,34 C39,28.4771525 34.5228475,24 29,24 C23.4771525,24 19,28.4771525 19,34 C19,39.5228475 23.4771525,44 29,44 Z M29,45 C22.9248678,45 18,40.0751322 18,34 C18,27.9248678 22.9248678,23 29,23 C35.0751322,23 40,27.9248678 40,34 C40,40.0751322 35.0751322,45 29,45 Z" id="Oval-4" fill="#979797" fill-rule="nonzero" transform="translate(29.000000, 34.000000) scale(-1, 1) translate(-29.000000, -34.000000) "></path>
                    <path d="M26.6610337,30.2832745 C26.2853364,29.9075773 25.6663955,29.9072232 25.2848627,30.2887559 C24.90067,30.6729487 24.9008759,31.2864214 25.2793813,31.6649269 L27.616401,34.0019466 L25.2793813,36.3389663 C24.903684,36.7146636 24.90333,37.3336045 25.2848627,37.7151373 C25.6690555,38.09933 26.2825282,38.0991241 26.6610337,37.7206187 L28.9980534,35.383599 L31.3350731,37.7206187 C31.7107704,38.096316 32.3297113,38.09667 32.7112441,37.7151373 C33.0954368,37.3309445 33.0952309,36.7174718 32.7167255,36.3389663 L30.3797057,34.0019466 L32.7167255,31.6649269 C33.0924227,31.2892296 33.0927768,30.6702887 32.7112441,30.2887559 C32.3270513,29.9045632 31.7135786,29.9047691 31.3350731,30.2832745 L28.9980534,32.6202943 L26.6610337,30.2832745 Z" id="x" fill="#999999" transform="translate(28.998053, 34.001947) scale(-1, 1) translate(-28.998053, -34.001947) "></path>
                </g>
            </g>
        </g>
    </g>
</svg>