<?xml version="1.0" encoding="UTF-8"?>
<svg width="18px" height="18px" viewBox="0 0 18 18" version="1.1" xmlns="http://www.w3.org/2000/svg" xmlns:xlink="http://www.w3.org/1999/xlink">
    <!-- Generator: Sketch 46.2 (44496) - http://www.bohemiancoding.com/sketch -->
    <title>icon info</title>
    <desc>Created with Sketch.</desc>
    <defs></defs>
    <g id="Page-1" stroke="none" stroke-width="1" fill="none" fill-rule="evenodd">
        <g id="Downloader-v8---dropdown-1" transform="translate(-991.000000, -103.000000)" fill="#757575">
            <g id="icon-info" transform="translate(991.000000, 103.000000)">
                <path d="M9,16.5 C13.1421356,16.5 16.5,13.1421356 16.5,9 C16.5,4.85786438 13.1421356,1.5 9,1.5 C4.85786438,1.5 1.5,4.85786438 1.5,9 C1.5,13.1421356 4.85786438,16.5 9,16.5 Z M9,18 C4.02943725,18 0,13.9705627 0,9 C0,4.02943725 4.02943725,0 9,0 C13.9705627,0 18,4.02943725 18,9 C18,13.9705627 13.9705627,18 9,18 Z" id="Oval-4" fill-rule="nonzero"></path>
                <path d="M8,13 L8,8 C8,7.98181152 8.44799054,8 9,8 C9.55200946,8 10,8.03381348 10,8 L10,13 L9,13 C8.44799054,13 8,13.0064697 8,13 Z M8,5 L10,5 L10,7 L8,7 L8,5 Z" id="Combined-Shape"></path>
            </g>
        </g>
    </g>
</svg>