<?xml version="1.0" encoding="UTF-8"?>
<svg width="42px" height="35px" viewBox="0 0 42 35" version="1.1" xmlns="http://www.w3.org/2000/svg" xmlns:xlink="http://www.w3.org/1999/xlink">
    <!-- Generator: sketchtool 48.2 (47327) - http://www.bohemiancoding.com/sketch -->
    <title>99C618EC-027E-4631-9EE6-90A1332E071B</title>
    <desc>Created with sketchtool.</desc>
    <defs></defs>
    <g id="Bank-Mode-Advanced-1" stroke="none" stroke-width="1" fill="none" fill-rule="evenodd" transform="translate(-662.000000, -217.000000)">
        <path d="M692.5,224.9 C692.83,224.9 693.42,225.02 694.25,225.25 L702.35,227.65 C702.88,227.78 703.27,227.97 703.5,228.2 C703.83,228.37 704,228.82 704,229.55 L704,237.1 C704,237.47 703.97,237.83 703.9,238.2 C703.57,240.97 702.37,243.48 700.3,245.75 C698.1,247.98 695.72,249.73 693.15,251 C693.05,251.03 692.97,251.05 692.9,251.05 L692.1,251.05 C692.03,251.05 691.97,251.03 691.9,251 C689.3,249.73 686.92,247.98 684.75,245.75 C682.65,243.48 681.43,240.97 681.1,238.2 C681.03,237.83 681,237.47 681,237.1 L681,229.55 C681,228.78 681.17,228.33 681.5,228.2 C681.67,228 682.07,227.82 682.7,227.65 L682.65,227.65 L691,225.2 C691.66,225 692.16,224.9 692.5,224.9 Z M692.5,225.9 C692.27,225.9 691.82,226 691.15,226.2 L682.95,228.6 C682.55,228.7 682.3,228.82 682.2,228.95 C682.17,228.98 682.13,229.02 682.1,229.05 C682.03,229.12 682,229.28 682,229.55 L682,237.1 C682,237.4 682.03,237.7 682.1,238 L682.1,238.05 C682.4,240.62 683.53,242.95 685.5,245.05 C687.53,247.18 689.78,248.85 692.25,250.05 L692.8,250.05 C695.23,248.85 697.48,247.18 699.55,245.05 C701.48,242.95 702.6,240.62 702.9,238.05 L702.9,238 C702.97,237.7 703,237.4 703,237.1 L703,229.55 C703,229.28 702.98,229.12 702.95,229.05 C702.88,229.02 702.85,228.98 702.85,228.95 C702.72,228.82 702.47,228.7 702.1,228.6 L702.05,228.6 L693.9,226.2 C693.23,226 692.77,225.9 692.5,225.9 Z M697,225 L697,223 L663,223 L663,228 L680,228 L680,229 L663,229 L663,241 C663,242.33 663.67,243 665,243 L681.5,243 L681.5,244 L664.9,244 C663.03,243.97 662.07,243.02 662,241.15 L662,219.9 C662.07,218.03 663.03,217.07 664.9,217 L695.15,217 C697.02,217.07 697.97,218.03 698,219.9 L698,225 L697,225 Z M697,220 C697,218.67 696.33,218 695,218 L665,218 C663.67,218 663,218.67 663,220 L663,222 L697,222 L697,220 Z M680,238 L672.95,238 L672.95,237 L680,237 L680,238 Z M670.95,237 L670.95,238 L666,238 L666,237 L670.95,237 Z" id="BM-icon" fill="#242424"></path>
    </g>
</svg>