<?xml version="1.0" encoding="UTF-8"?>
<svg width="4px" height="14px" viewBox="0 0 4 14" version="1.1" xmlns="http://www.w3.org/2000/svg" xmlns:xlink="http://www.w3.org/1999/xlink">
    <!-- Generator: Sketch 47.1 (45422) - http://www.bohemiancoding.com/sketch -->
    <title>Group</title>
    <desc>Created with Sketch.</desc>
    <defs></defs>
    <g id="Browser---Lukas" stroke="none" stroke-width="1" fill="none" fill-rule="evenodd">
        <g id="AdBlock-Advanced-UI" transform="translate(-288.000000, -755.000000)">
            <g id="Group" transform="translate(288.000000, 755.000000)">
                <path d="M3,13.7324356 C2.70582663,13.9026057 2.36428714,14 2,14 C1.63571286,14 1.29417337,13.9026057 1,13.7324356 L1,13 L0.267564391,13 C0.097394286,12.7058266 4.46123084e-17,12.3642871 0,12 L0,12 L0,12 C-4.46123084e-17,11.6357129 0.097394286,11.2941734 0.267564391,11 L1,11 L1,10.2675644 C1.29417337,10.0973943 1.63571286,10 2,10 L2,10 L2,10 C2.36428714,10 2.70582663,10.0973943 3,10.2675644 L3,11 L3.73243561,11 C3.90260571,11.2941734 4,11.6357129 4,12 L4,12 C4,12.3642871 3.90260571,12.7058266 3.73243561,13 L3,13 L3,13.7324356 Z" id="Combined-Shape" fill="#B4B4B4"></path>
                <rect id="Rectangle-3-Copy-3" fill="#757575" x="1" y="11" width="2" height="2"></rect>
                <path d="M3,8.73243561 C2.70582663,8.90260571 2.36428714,9 2,9 C1.63571286,9 1.29417337,8.90260571 1,8.73243561 L1,8 L0.267564391,8 C0.097394286,7.70582663 4.46123084e-17,7.36428714 0,7 L0,7 L0,7 C-4.46123084e-17,6.63571286 0.097394286,6.29417337 0.267564391,6 L1,6 L1,5.26756439 C1.29417337,5.09739429 1.63571286,5 2,5 L2,5 L2,5 C2.36428714,5 2.70582663,5.09739429 3,5.26756439 L3,6 L3.73243561,6 C3.90260571,6.29417337 4,6.63571286 4,7 L4,7 C4,7.36428714 3.90260571,7.70582663 3.73243561,8 L3,8 L3,8.73243561 Z" id="Combined-Shape" fill="#B4B4B4"></path>
                <rect id="Rectangle-3-Copy-3" fill="#757575" x="1" y="6" width="2" height="2"></rect>
                <path d="M3,3.73243561 C2.70582663,3.90260571 2.36428714,4 2,4 C1.63571286,4 1.29417337,3.90260571 1,3.73243561 L1,3 L0.267564391,3 C0.097394286,2.70582663 4.46123084e-17,2.36428714 0,2 L0,2 L0,2 C-4.46123084e-17,1.63571286 0.097394286,1.29417337 0.267564391,1 L1,1 L1,0.267564391 C1.29417337,0.097394286 1.63571286,6.69184626e-17 2,0 L2,0 L2,0 C2.36428714,-6.69184626e-17 2.70582663,0.097394286 3,0.267564391 L3,1 L3.73243561,1 C3.90260571,1.29417337 4,1.63571286 4,2 L4,2 C4,2.36428714 3.90260571,2.70582663 3.73243561,3 L3,3 L3,3.73243561 Z" id="Combined-Shape" fill="#B4B4B4"></path>
                <rect id="Rectangle-3-Copy-3" fill="#757575" x="1" y="1" width="2" height="2"></rect>
            </g>
        </g>
    </g>
</svg>