<?xml version="1.0" encoding="UTF-8"?>
<svg width="14px" height="14px" viewBox="0 0 14 14" version="1.1" xmlns="http://www.w3.org/2000/svg" xmlns:xlink="http://www.w3.org/1999/xlink">
    <!-- Generator: Sketch 47.1 (45422) - http://www.bohemiancoding.com/sketch -->
    <title>Combined Shape</title>
    <desc>Created with Sketch.</desc>
    <defs></defs>
    <g id="Browser---Lukas" stroke="none" stroke-width="1" fill="none" fill-rule="evenodd">
        <g id="AdBlock-Advanced-UI" transform="translate(-284.000000, -814.000000)" fill-rule="nonzero" fill="#B6B6B6">
            <path d="M296,826 L296,821 L298,821 L298,826.5 C298,827.325 297.325,828 296.5,828 L285.5,828 C284.6675,828 284,827.325 284,826.5 L284,815.5 C284,814.675 284.6675,814 285.5,814 L291,814 L291,816 L286,816 L286,826 L296,826 Z M291.920786,814 L298,814 L298,820.079214 L296.015812,820.079214 L296.015812,817.115175 L288.130987,825 L287,823.869013 L294.884825,815.984188 L291.920786,815.984188 L291.920786,814 Z" id="Combined-Shape"></path>
        </g>
    </g>
</svg>