<?xml version="1.0" encoding="UTF-8"?>
<svg width="12px" height="12px" viewBox="0 0 12 12" version="1.1" xmlns="http://www.w3.org/2000/svg" xmlns:xlink="http://www.w3.org/1999/xlink">
    <!-- Generator: Sketch 47.1 (45422) - http://www.bohemiancoding.com/sketch -->
    <title>Fill 1</title>
    <desc>Created with Sketch.</desc>
    <defs></defs>
    <g id="Browser---Lukas" stroke="none" stroke-width="1" fill="none" fill-rule="evenodd">
        <g id="AdBlock-Advanced-UI" transform="translate(-282.000000, -629.000000)" fill="#757575">
            <path d="M289.41425,635.00025 L293.70725,630.70725 C294.09825,630.31625 294.09825,629.68425 293.70725,629.29325 C293.31625,628.90225 292.68425,628.90225 292.29325,629.29325 L288.00025,633.58625 L283.70725,629.29325 C283.31625,628.90225 282.68425,628.90225 282.29325,629.29325 C281.90225,629.68425 281.90225,630.31625 282.29325,630.70725 L286.58625,635.00025 L282.29325,639.29325 C281.90225,639.68425 281.90225,640.31625 282.29325,640.70725 C282.48825,640.90225 282.74425,641.00025 283.00025,641.00025 C283.25625,641.00025 283.51225,640.90225 283.70725,640.70725 L288.00025,636.41425 L292.29325,640.70725 C292.48825,640.90225 292.74425,641.00025 293.00025,641.00025 C293.25625,641.00025 293.51225,640.90225 293.70725,640.70725 C294.09825,640.31625 294.09825,639.68425 293.70725,639.29325 L289.41425,635.00025 Z" id="Fill-1"></path>
        </g>
    </g>
</svg>